<?xml version="1.0" standalone="no"?>
<!DOCTYPE svg PUBLIC "-//W3C//DTD SVG 20010904//EN"
 "http://www.w3.org/TR/2001/REC-SVG-20010904/DTD/svg10.dtd">
<svg version="1.0" xmlns="http://www.w3.org/2000/svg"
 width="200.000000pt" height="200.000000pt" viewBox="0 0 200.000000 200.000000"
 preserveAspectRatio="xMidYMid meet">

<g transform="translate(0.000000,200.000000) scale(0.100000,-0.100000)"
fill="#000000" stroke="none">
<path d="M984 1445 c-4 -8 -4 -24 -1 -35 3 -10 0 -21 -7 -23 -6 -2 -8 -8 -4
-12 4 -4 15 -5 24 -1 12 5 15 14 10 36 -3 18 -1 30 5 30 6 0 7 5 4 10 -9 15
-25 12 -31 -5z"/>
<path d="M1040 1445 c-6 -8 -9 -23 -5 -34 3 -10 1 -22 -5 -26 -6 -3 -8 -11 -4
-16 10 -16 35 12 32 35 -1 12 1 26 5 33 11 17 -9 25 -23 8z"/>
<path d="M1090 1425 c-6 -8 -9 -23 -5 -34 3 -10 1 -22 -5 -26 -6 -3 -8 -11 -4
-16 10 -16 35 12 32 35 -1 12 1 26 5 33 11 17 -9 25 -23 8z"/>
<path d="M798 1350 c-28 -29 -30 -34 -23 -84 3 -30 2 -72 -3 -93 -6 -21 -13
-50 -16 -64 -4 -19 -12 -25 -28 -25 -30 1 -39 -41 -11 -50 10 -4 34 -22 54
-41 32 -31 49 -37 177 -63 116 -24 146 -28 169 -18 15 6 46 14 68 17 31 5 41
11 43 28 2 14 -3 23 -17 28 -12 3 -21 14 -21 23 1 45 30 143 49 167 28 37 27
69 -6 105 -25 27 -43 33 -196 65 -92 19 -177 35 -188 35 -11 0 -34 -14 -51
-30z m129 -4 c92 -20 99 -23 113 -55 12 -29 1 -76 -19 -82 -6 -2 -18 -41 -27
-86 -10 -51 -22 -83 -29 -83 -13 0 -162 28 -181 35 -8 2 -6 28 7 86 12 55 15
88 8 100 -15 28 -11 48 16 74 28 29 25 29 112 11z m215 -46 c92 -18 115 -62
68 -130 -10 -14 -24 -55 -30 -93 -7 -37 -17 -70 -22 -73 -16 -10 -158 26 -158
41 0 34 32 149 45 162 22 21 29 61 16 89 -10 22 -9 25 6 20 10 -2 44 -10 75
-16z m67 -336 c15 -14 -26 -8 -189 26 -102 21 -211 43 -242 50 -32 6 -58 15
-58 19 0 8 479 -86 489 -95z m-225 14 c147 -30 157 -33 130 -44 -42 -17 -287
34 -318 67 l-21 22 25 -6 c14 -4 97 -21 184 -39z"/>
<path d="M820 1325 c-8 -9 -10 -30 -6 -57 3 -24 -1 -72 -8 -108 -8 -36 -13
-66 -11 -68 2 -2 40 -12 85 -22 59 -13 82 -15 86 -7 2 7 10 42 18 79 7 37 21
74 30 83 21 21 20 58 -1 77 -20 16 -108 38 -153 38 -15 0 -33 -7 -40 -15z
m130 -19 c46 -10 56 -16 58 -36 2 -13 -3 -29 -12 -35 -8 -6 -22 -44 -31 -83
-18 -79 -17 -78 -95 -60 l-52 12 8 50 c5 28 9 74 10 101 0 28 2 53 2 58 3 10
49 8 112 -7z"/>
<path d="M867 1202 c-15 -10 -24 -21 -21 -25 8 -8 64 23 64 35 0 12 -13 9 -43
-10z"/>
<path d="M922 1194 c-33 -23 -27 -38 8 -17 17 9 30 21 30 25 0 12 -13 10 -38
-8z"/>
<path d="M728 723 c-16 -4 -18 -18 -18 -119 l0 -114 39 0 c33 0 40 4 44 23 3
21 4 21 15 -5 10 -25 14 -26 42 -17 42 15 46 26 21 59 -20 28 -20 30 -3 60 16
30 16 32 -2 45 -32 24 -54 18 -63 -17 -7 -30 -8 -28 -13 27 -5 63 -14 71 -62
58z"/>
<path d="M1337 717 c-15 -10 -17 -27 -15 -117 l3 -105 36 -3 c31 -3 38 1 43
20 6 17 9 19 13 8 13 -35 24 -40 54 -24 34 17 35 25 12 60 -15 24 -15 27 1 56
21 34 13 48 -29 51 -24 2 -30 -3 -39 -33 -11 -34 -11 -33 -14 33 -3 62 -5 67
-26 67 -12 0 -30 -6 -39 -13z"/>
<path d="M130 671 c0 -33 3 -40 23 -43 20 -3 22 -9 25 -70 l3 -68 39 0 40 0 0
69 c0 65 2 70 23 73 18 2 22 9 22 38 l0 35 -87 3 -88 3 0 -40z"/>
<path d="M917 703 c-4 -3 -7 -53 -7 -111 l0 -104 81 4 c66 3 83 7 95 23 18 25
18 59 -1 75 -11 9 -13 16 -5 24 18 18 11 64 -12 80 -23 16 -138 23 -151 9z
m93 -58 c0 -8 -4 -17 -10 -20 -6 -4 -10 5 -10 20 0 15 4 24 10 20 6 -3 10 -12
10 -20z m0 -84 c0 -11 -4 -23 -10 -26 -6 -4 -10 5 -10 19 0 14 5 26 10 26 6 0
10 -9 10 -19z"/>
<path d="M353 660 c-25 -10 -30 -29 -12 -47 8 -8 18 -8 35 0 17 7 28 7 35 0 7
-7 -1 -13 -28 -18 -49 -9 -63 -21 -63 -54 0 -34 17 -51 50 -51 14 0 31 5 38
12 9 9 12 9 12 0 0 -7 16 -12 40 -12 l40 0 0 69 c0 63 -2 71 -26 90 -28 22
-82 27 -121 11z m67 -110 c0 -11 -4 -20 -10 -20 -5 0 -10 9 -10 20 0 11 5 20
10 20 6 0 10 -9 10 -20z"/>
<path d="M552 654 c-36 -25 -27 -76 15 -89 49 -16 53 -29 6 -21 -37 5 -42 3
-48 -15 -9 -29 9 -39 70 -39 59 0 95 21 95 55 0 26 -33 55 -62 55 -10 0 -18 5
-18 11 0 7 11 8 29 4 24 -5 32 -2 41 16 10 17 9 23 -1 30 -23 15 -103 10 -127
-7z"/>
<path d="M1158 659 c-30 -11 -35 -28 -16 -47 8 -8 17 -8 30 -1 11 6 27 7 36 4
12 -5 4 -11 -30 -21 -38 -11 -49 -20 -54 -41 -12 -47 5 -58 95 -60 l81 -2 0
68 c0 40 -5 75 -13 85 -16 22 -90 30 -129 15z m62 -109 c0 -11 -4 -20 -10 -20
-5 0 -10 9 -10 20 0 11 5 20 10 20 6 0 10 -9 10 -20z"/>
<path d="M1563 660 c-29 -12 -43 -40 -43 -89 0 -57 28 -81 94 -81 63 0 80 10
71 39 -6 20 -11 22 -46 16 -25 -4 -39 -3 -39 4 0 6 13 11 28 11 39 0 65 21 65
55 0 16 -8 34 -19 42 -20 15 -78 16 -111 3z m57 -55 c0 -8 -4 -15 -10 -15 -5
0 -10 7 -10 15 0 8 5 15 10 15 6 0 10 -7 10 -15z"/>
<path d="M1738 663 c-15 -4 -18 -17 -18 -89 l0 -85 38 3 37 3 3 54 3 53 34 -6
c31 -6 34 -5 40 25 10 43 -6 57 -47 41 -21 -8 -36 -8 -42 -2 -10 10 -19 11
-48 3z"/>
</g>
</svg>
